<svg id="Слой_1" data-name="Слой 1" xmlns="http://www.w3.org/2000/svg" viewBox="0 0 15.52 18">

<path class="cls-1" d="M3.54,8.64a.18.18,0,0,1,.09,0,.28.28,0,0,1,.12.16.34.34,0,0,1,0,.11,9.62,9.62,0,0,0,.29,2.62,7.38,7.38,0,0,0,1,2.29,4.19,4.19,0,0,0,.49.64l0,.05a5.24,5.24,0,0,0,1.57,1.16A6.6,6.6,0,0,0,10,16.3h.1a.29.29,0,0,1,.18.33.29.29,0,0,1-.23.23H10a8.51,8.51,0,0,1-1.81-.2A6.28,6.28,0,0,1,6.37,16a5.13,5.13,0,0,1-.83-.62A6.32,6.32,0,0,1,4,13.26l-.09-.19h0a9.64,9.64,0,0,1-.65-2.38A10,10,0,0,1,3.18,9V8.91h0a.29.29,0,0,1,0-.1.3.3,0,0,1,.18-.17h.15Z" transform="translate(-2.24 -1)"/>
<path class="cls-1" d="M16.56,8.63l.1,0a.27.27,0,0,1,.13.15.29.29,0,0,1,0,.11,9.79,9.79,0,0,1-.07,1.44c0,.29-.08.59-.14.88a8.74,8.74,0,0,1-.68,2.1A6.23,6.23,0,0,1,14.79,15l-.09.1,0,.05a6,6,0,0,1-1.16.87,6.13,6.13,0,0,1-1.9.69,8.61,8.61,0,0,1-1.58.15H10a.29.29,0,0,1,0-.57.48.48,0,0,1,.12,0,6.75,6.75,0,0,0,2.74-.56,5.1,5.1,0,0,0,1.26-.83,5.86,5.86,0,0,0,1.32-1.78l0-.06h0a8.68,8.68,0,0,0,.75-2.77,8.73,8.73,0,0,0,.07-1.35h0s0-.06,0-.1a.3.3,0,0,1,.16-.19l.1,0Z" transform="translate(-2.24 -1)"/>
<path class="cls-1" d="M10,7.33A25.92,25.92,0,0,1,14,7.6l.17,0a9.72,9.72,0,0,1,1.75.43,2.48,2.48,0,0,1,.56.29l.12.1h0s0,0,0,0l0,0a.42.42,0,0,1,.09.14l0,0h0l0,.1a.35.35,0,0,1,0,.07.47.47,0,0,1,0,.17.43.43,0,0,1,0,.1l0,0-.05.08a.27.27,0,0,1-.07.08l0,.05-.07.06-.1.07a3.09,3.09,0,0,1-.85.37,8.3,8.3,0,0,1-1.24.29,26,26,0,0,1-4.75.32c-.73,0-1.46,0-2.18-.1A17.68,17.68,0,0,1,4.89,10a5.45,5.45,0,0,1-1-.32,2.13,2.13,0,0,1-.44-.26l0,0a1.24,1.24,0,0,1-.18-.22v0l0,0a.59.59,0,0,1,0-.37h0a.1.1,0,0,0,0,0v0l0,0a.91.91,0,0,1,.11-.16l.08-.08A2.38,2.38,0,0,1,4,8.07a8.5,8.5,0,0,1,1.65-.42,24.59,24.59,0,0,1,3.18-.3ZM3.76,8.92l0,0a.91.91,0,0,0,.38.24l.43.16.08,0a14.63,14.63,0,0,0,2.89.47,30.08,30.08,0,0,0,4.65,0,18.45,18.45,0,0,0,2.57-.34c.19,0,.37-.09.56-.15h0a2.68,2.68,0,0,0,.72-.3.41.41,0,0,0,.15-.14l0,0a.89.89,0,0,0-.33-.21,5.88,5.88,0,0,0-1.3-.38A19.08,19.08,0,0,0,11.77,8,31.37,31.37,0,0,0,7.89,8a17.25,17.25,0,0,0-2.77.38,4.24,4.24,0,0,0-1.06.34.72.72,0,0,0-.28.2Zm0,0Z" transform="translate(-2.24 -1)"/>
<path class="cls-1" d="M8.66,1h.05a.27.27,0,0,1,.13.07.94.94,0,0,1,.09.12,2.17,2.17,0,0,1,.43,1.31,2.2,2.2,0,0,1-.45,1.05,1.6,1.6,0,0,0-.41,1,1.72,1.72,0,0,0,.38.9l0,0,0,0a.29.29,0,0,1-.49.28c0-.06-.09-.13-.14-.2a3.45,3.45,0,0,1-.24-.47.45.45,0,0,1,0-.08A1.56,1.56,0,0,1,8,4.17a1.79,1.79,0,0,1,.16-.44.3.3,0,0,0,0-.06c.15-.25.34-.48.48-.74a1,1,0,0,0,.15-.68,2.13,2.13,0,0,0-.36-.78h0l0-.05a.17.17,0,0,1,0-.1A.29.29,0,0,1,8.52,1l.09,0Z" transform="translate(-2.24 -1)"/>
<path class="cls-1" d="M10,1h.05a.27.27,0,0,1,.13.07.94.94,0,0,1,.09.12,2.17,2.17,0,0,1,.43,1.31,2.2,2.2,0,0,1-.45,1.05,1.6,1.6,0,0,0-.41,1,1.72,1.72,0,0,0,.38.9l0,0a.54.54,0,0,1,0,.1.31.31,0,0,1-.22.31.32.32,0,0,1-.28-.08c0-.06-.09-.13-.14-.2a2.6,2.6,0,0,1-.24-.47.45.45,0,0,1,0-.08,1.56,1.56,0,0,1-.07-.88,1.79,1.79,0,0,1,.16-.44.3.3,0,0,0,0-.06c.15-.25.34-.48.48-.74a1,1,0,0,0,.15-.68,2.13,2.13,0,0,0-.36-.78h0l0-.05a.17.17,0,0,1,0-.1A.29.29,0,0,1,9.88,1L10,1Z" transform="translate(-2.24 -1)"/>
<path class="cls-1" d="M11.38,1h0a.27.27,0,0,1,.13.07.94.94,0,0,1,.09.12,2.17,2.17,0,0,1,.43,1.31,2.2,2.2,0,0,1-.45,1.05,1.6,1.6,0,0,0-.41,1,1.72,1.72,0,0,0,.38.9l0,0a.54.54,0,0,1,0,.1.31.31,0,0,1-.22.31.32.32,0,0,1-.28-.08c-.05-.06-.09-.13-.14-.2a2.6,2.6,0,0,1-.24-.47.45.45,0,0,1,0-.08,1.56,1.56,0,0,1-.07-.88,1.79,1.79,0,0,1,.16-.44.3.3,0,0,0,0-.06c.15-.25.34-.48.48-.74a1,1,0,0,0,.15-.68,2.13,2.13,0,0,0-.36-.78h0l0-.05a.17.17,0,0,1,0-.1A.29.29,0,0,1,11.24,1l.09,0Z" transform="translate(-2.24 -1)"/>
<path class="cls-1" d="M4.42,13.43l.34.49-.42.19a4.11,4.11,0,0,0-1,.62,1.76,1.76,0,0,0-.47.62,1,1,0,0,0,0,.76,2,2,0,0,0,.69.8,5.89,5.89,0,0,0,1.48.75A13,13,0,0,0,8,18.31c.48.05,1,.08,1.44.1a18.62,18.62,0,0,0,2.69-.11,14.22,14.22,0,0,0,2.16-.42c.31-.09.62-.19.92-.31a6.35,6.35,0,0,0,.91-.44,3.7,3.7,0,0,0,.67-.51,2.29,2.29,0,0,0,.32-.43,1,1,0,0,0,.06-.75,1.93,1.93,0,0,0-.78-.93,6,6,0,0,0-1.06-.57l.31-.5.52.25a4,4,0,0,1,1.18.9,3.43,3.43,0,0,1,.24.33l.09.19h0a1.15,1.15,0,0,1,.06.17h0a1.5,1.5,0,0,1,0,.89,2.27,2.27,0,0,1-.78,1.07,3.45,3.45,0,0,1-.5.35,6.29,6.29,0,0,1-1.2.57c-.25.1-.51.18-.77.26a14.93,14.93,0,0,1-2.9.51,19.61,19.61,0,0,1-2.42,0,16.55,16.55,0,0,1-2.92-.39,9.47,9.47,0,0,1-1.38-.4,7.34,7.34,0,0,1-1.35-.66,2.76,2.76,0,0,1-1.13-1.24,1.57,1.57,0,0,1,.11-1.35,2.82,2.82,0,0,1,.8-.85A5.6,5.6,0,0,1,4.42,13.43Z" transform="translate(-2.24 -1)"/>
</svg>