<svg width="2" height="5" viewBox="0 0 2 5" fill="none" xmlns="http://www.w3.org/2000/svg">
<path fill-rule="evenodd" clip-rule="evenodd" d="M1.0244 0C1.041 0.003 1.058 0.00460002 1.0742 0.00900002C1.1234 0.0222 1.1686 0.0486 1.2042 0.0844C1.2396 0.1198 1.2642 0.1624 1.2914 0.2032C1.552 0.5946 1.7522 1.04 1.7196 1.508C1.6922 1.9012 1.4778 2.2626 1.2722 2.5582C1.0678 2.8518 0.835599 3.1524 0.856199 3.5288C0.874399 3.8598 1.0524 4.165 1.237 4.4308L1.2622 4.4748C1.2736 4.5066 1.2852 4.5386 1.288 4.5722C1.2992 4.707 1.2042 4.8424 1.0728 4.8772C0.974599 4.903 0.864199 4.8732 0.792599 4.801C0.736399 4.7444 0.698199 4.6724 0.654799 4.6034C0.559599 4.4528 0.474799 4.2956 0.409199 4.131C0.409199 4.131 0.392199 4.0886 0.377999 4.0484C0.278799 3.7682 0.243799 3.4642 0.306999 3.1712C0.340199 3.017 0.397999 2.8694 0.471999 2.7298C0.471999 2.7298 0.488399 2.6988 0.503199 2.6728C0.646399 2.4178 0.837599 2.194 0.984599 1.9342C1.0986 1.733 1.1702 1.5064 1.13 1.2538C1.0844 0.9688 0.934599 0.7072 0.768799 0.4672L0.760599 0.4554L0.735199 0.4116C0.719999 0.3694 0.713199 0.3592 0.709399 0.314C0.699199 0.196 0.768599 0.076 0.876399 0.026C0.917399 0.00680002 0.929799 0.0076 0.973799 0C0.990799 0 1.0076 0 1.0244 0Z" fill="black"/>
</svg>
