<svg width="12" height="17" viewBox="0 0 12 17" fill="none" xmlns="http://www.w3.org/2000/svg">
<g clip-path="url(#clip0)">
<path d="M7.536 7.42408H4.464C4.404 7.42408 4.352 7.38674 4.312 7.32808L0.448002 1.02408C0.344002 0.858745 0.436002 0.602745 0.600002 0.602745H11.408C11.572 0.602745 11.66 0.858745 11.56 1.02408L7.692 7.32808C7.652 7.38674 7.596 7.42408 7.536 7.42408Z" fill="white" stroke="#8391AD" stroke-miterlimit="10"/>
<path d="M7.536 12.8854L4.724 15.4614C4.576 15.5948 4.372 15.4614 4.372 15.2268V7.70675C4.372 7.54675 4.472 7.41875 4.596 7.41875H7.408C7.532 7.41875 7.632 7.54675 7.632 7.70675V12.6508C7.628 12.7414 7.596 12.8321 7.536 12.8854Z" fill="white" stroke="#8391AD" stroke-miterlimit="10"/>
</g>
<defs>
<clipPath id="clip0">
<rect y="0.0694122" width="12" height="16" fill="white"/>
</clipPath>
</defs>
</svg>
