<svg width="13" height="18" viewBox="0 0 13 18" fill="none" xmlns="http://www.w3.org/2000/svg">
<g clip-path="url(#clip0)">
<path d="M8.164 8.274H4.836C4.771 8.274 4.71467 8.232 4.67133 8.166L0.485334 1.074C0.372668 0.887998 0.472334 0.599998 0.650001 0.599998H12.3587C12.5363 0.599998 12.6317 0.887998 12.5233 1.074L8.333 8.166C8.28967 8.232 8.229 8.274 8.164 8.274Z" fill="white" stroke="#8391AD" stroke-width="1.4" stroke-miterlimit="10"/>
<path d="M8.164 14.418L5.11767 17.316C4.95734 17.466 4.73634 17.316 4.73634 17.052V8.59201C4.73634 8.41201 4.84467 8.26801 4.979 8.26801H8.02533C8.15967 8.26801 8.268 8.41201 8.268 8.59201V14.154C8.26367 14.256 8.229 14.358 8.164 14.418Z" fill="white" stroke="#8391AD" stroke-width="1.4" stroke-miterlimit="10"/>
</g>
<defs>
<clipPath id="clip0">
<rect width="13" height="18" fill="white"/>
</clipPath>
</defs>
</svg>
