<svg width="23" height="20" viewBox="0 0 23 20" fill="none" xmlns="http://www.w3.org/2000/svg">
<path fill-rule="evenodd" clip-rule="evenodd" d="M7.25474 3.4211C8.64019 2.94667 10.1419 2.92448 11.541 3.35776C12.94 3.79106 14.1632 4.65716 15.0321 5.82979C15.901 7.00243 16.3703 8.42026 16.3716 9.87658C16.3716 9.9023 16.3724 9.92791 16.3741 9.95325H12.9458L17.5695 14.5263L22.1932 9.95325H18.7648C18.7665 9.92725 18.7674 9.90106 18.7674 9.87458C18.7658 7.91093 18.133 5.99912 16.9612 4.41793C15.7896 2.83675 14.1403 1.66889 12.2538 1.08464C10.3673 0.500389 8.34237 0.530309 6.47423 1.17004C4.60607 1.80976 2.99241 3.02584 1.86853 4.64094C0.744655 6.25605 0.16934 8.18571 0.226474 10.1486C0.283609 12.1114 0.970211 14.0048 2.18615 15.5527C3.4021 17.1005 5.08379 18.2218 6.98603 18.7532C8.88827 19.2845 10.9116 19.198 12.7609 18.5064C13.3801 18.2749 13.6931 17.5883 13.4601 16.973C13.2271 16.3575 12.5362 16.0465 11.917 16.278C10.5456 16.791 9.04503 16.8551 7.63431 16.4611C6.22357 16.067 4.9764 15.2353 4.07464 14.0874C3.17287 12.9395 2.66368 11.5354 2.6213 10.0797C2.57894 8.62404 3.0056 7.19296 3.83909 5.99518C4.67257 4.79739 5.86929 3.89552 7.25474 3.4211Z" fill="#8391AD"/>
</svg>
