<svg width="20" height="20" viewBox="0 0 20 20" fill="none" xmlns="http://www.w3.org/2000/svg">
<path d="M19.1186 17.2581L15.1033 13.2428C15.9666 12.0397 16.4813 10.6217 16.5907 9.14499C16.7002 7.66823 16.4002 6.18991 15.7238 4.87264C15.0473 3.55537 14.0206 2.45021 12.7567 1.67875C11.4927 0.907283 10.0404 0.49941 8.5596 0.500001C6.42392 0.501027 4.376 1.34988 2.86584 2.86004C1.35568 4.3702 0.506832 6.41812 0.505806 8.5538C0.503824 10.0352 0.910842 11.4883 1.68201 12.7532C2.45317 14.018 3.55855 15.0453 4.87633 15.722C6.1941 16.3988 7.67312 16.6985 9.15039 16.5883C10.6277 16.4781 12.0458 15.9622 13.2486 15.0975L17.2639 19.1167C17.5104 19.3631 17.8447 19.5016 18.1932 19.5016C18.5418 19.5016 18.876 19.3631 19.1225 19.1167C19.369 18.8702 19.5074 18.5359 19.5074 18.1874C19.5074 17.8388 19.369 17.5046 19.1225 17.2581H19.1186ZM4.72243 12.3948C3.83664 11.5074 3.28591 10.3402 3.16404 9.09228C3.04218 7.84431 3.35671 6.5927 4.05407 5.55061C4.75142 4.50852 5.78848 3.74041 6.98859 3.37711C8.1887 3.01381 9.47765 3.07779 10.6359 3.55815C11.7941 4.0385 12.75 4.90553 13.3408 6.01156C13.9315 7.11758 14.1205 8.39419 13.8757 9.62395C13.6308 10.8537 12.9672 11.9606 11.9979 12.756C11.0286 13.5514 9.81351 13.9862 8.5596 13.9862C7.84657 13.9878 7.1403 13.8479 6.48167 13.5748C5.82303 13.3016 5.22509 12.9006 4.72243 12.3948Z" fill="#8391AD"/>
</svg>
