<svg width="20" height="21" viewBox="0 0 20 21" fill="none" xmlns="http://www.w3.org/2000/svg">
<g clip-path="url(#clip0)">
<path d="M13.6666 13.6041V2.9654C13.6666 2.70445 13.98 2.57732 14.16 2.75798L19.46 8.07732C19.5733 8.19107 19.5733 8.37841 19.46 8.49216L14.16 13.8115C13.98 13.9922 13.6666 13.865 13.6666 13.6041Z" fill="#8391AD" stroke="#8391AD" stroke-miterlimit="10"/>
<path d="M13.6666 10.4259C13.5599 10.5195 13.5133 10.5597 13.4066 10.6534C8.47995 10.1248 6.73995 10.6667 5.66661 11.7641C4.05995 13.3967 3.74661 16.2604 3.67995 17.351C3.67328 17.4246 3.57328 17.4313 3.55328 17.3644L2.74661 14.2866C2.49995 13.3364 2.39328 12.3462 2.53995 11.376C2.65995 10.553 2.92661 9.75676 3.35328 9.04082C4.04661 7.87659 5.01995 7.00676 6.27995 6.41795C7.30661 5.94289 8.43995 5.74886 9.57328 5.74886H13.6666V10.4259Z" fill="#8391AD" stroke="#8391AD" stroke-miterlimit="10"/>
</g>
<defs>
<clipPath id="clip0">
<rect y="0.0548172" width="20" height="20.073" fill="white"/>
</clipPath>
</defs>
</svg>
