<svg width="11" height="13" viewBox="0 0 11 13" fill="none" xmlns="http://www.w3.org/2000/svg">
<path d="M1.88 12.4978C1.395 12.4978 1 12.1619 1 11.7494V3.04033C1 2.62785 1.395 2.2919 1.88 2.2919H9.12C9.605 2.2919 10 2.62785 10 3.04033V11.7494C10 12.1619 9.605 12.4978 9.12 12.4978H1.88V12.4978Z" fill="white"/>
<path d="M9.12 2.71716C9.33 2.71716 9.5 2.86175 9.5 3.04035V11.7494C9.5 11.928 9.33 12.0726 9.12 12.0726H1.88C1.67 12.0726 1.5 11.928 1.5 11.7494V3.04035C1.5 2.86175 1.67 2.71716 1.88 2.71716H9.12ZM9.12 1.86667H1.88C1.12 1.86667 0.5 2.39397 0.5 3.04035V11.7494C0.5 12.3958 1.12 12.9231 1.88 12.9231H9.12C9.88 12.9231 10.5 12.3958 10.5 11.7494V3.04035C10.5 2.39397 9.88 1.86667 9.12 1.86667Z" fill="#6093DE"/>
<path d="M5.5 2.80002C6.05228 2.80002 6.5 2.38215 6.5 1.86668C6.5 1.35122 6.05228 0.93335 5.5 0.93335C4.94772 0.93335 4.5 1.35122 4.5 1.86668C4.5 2.38215 4.94772 2.80002 5.5 2.80002Z" fill="white"/>
<path d="M5.5 1.40001C5.775 1.40001 6 1.61001 6 1.86667C6 2.12334 5.775 2.33334 5.5 2.33334C5.225 2.33334 5 2.12334 5 1.86667C5 1.61001 5.225 1.40001 5.5 1.40001ZM5.5 0.466675C4.67 0.466675 4 1.09201 4 1.86667C4 2.64134 4.67 3.26667 5.5 3.26667C6.33 3.26667 7 2.64134 7 1.86667C7 1.09201 6.33 0.466675 5.5 0.466675Z" fill="#6093DE"/>
<path d="M7.5 3.73334H3.5C3.225 3.73334 3 3.52334 3 3.26668V2.80001C3 2.54334 3.225 2.33334 3.5 2.33334H7.5C7.775 2.33334 8 2.54334 8 2.80001V3.26668C8 3.52334 7.775 3.73334 7.5 3.73334Z" fill="#6093DE"/>
<path d="M5.12004 10.0474L4.49004 9.63202C4.32504 9.52469 4.28504 9.31002 4.40504 9.15602L6.87004 5.89869C6.98504 5.74469 7.21504 5.70735 7.38004 5.81935L8.01004 6.23469C8.17504 6.34202 8.21504 6.55669 8.09504 6.71069L5.63004 9.96802C5.51504 10.1174 5.28504 10.1547 5.12004 10.0474Z" fill="#6093DE"/>
<path d="M4.12506 7.69532L5.94506 8.89465C6.11006 9.00198 6.15006 9.21665 6.03006 9.37065L5.58506 9.95865C5.47006 10.1127 5.24006 10.15 5.07506 10.038L3.25506 8.83865C3.09006 8.73132 3.05006 8.51665 3.17006 8.36265L3.61506 7.77465C3.73506 7.62065 3.96006 7.58798 4.12506 7.69532Z" fill="#6093DE"/>
</svg>
